<svg width="1000" height="380" viewBox="0 0 1000 380" fill="none" xmlns="http://www.w3.org/2000/svg">
  <defs>
    <linearGradient id="panelbg" x1="0" y1="0" x2="0" y2="1">
      <stop offset="0" stop-color="#060a15"/>
      <stop offset="1" stop-color="#0a1124"/>
    </linearGradient>
  </defs>
  <style>
    text { font-family: 'Consolas','Courier New',monospace; }
    .ttl { font-size: 14px; fill: #8aa3c2; letter-spacing: 2px; }
    .sec { font-size: 15px; fill: #00f0ff; letter-spacing: 2px; font-weight: bold; }
    .lbl { font-size: 14px; fill: #6d87a8; }
    .val { font-size: 16px; fill: #00f0ff; font-weight: bold; }
    .pct { font-size: 13px; fill: #8aa3c2; }
    .ok  { font-size: 14px; fill: #2bff88; }
    .dim { font-size: 12px; fill: #33465f; }
    .row { animation: fadein .3s ease both; }
    @keyframes fadein { from { opacity: 0; } to { opacity: 1; } }
    .led { animation: pulse 2s ease-in-out infinite; }
    @keyframes pulse { 0%,100% { opacity: 1; } 50% { opacity: .3; } }
  </style>

  <rect x="0.5" y="0.5" width="999" height="379" rx="12" fill="url(#panelbg)" stroke="#14263f"/>
  <rect x="0.5" y="0.5" width="999" height="46" rx="12" fill="#0a1224"/>
  <rect x="0.5" y="34" width="999" height="13" fill="#0a1224"/>
  <line x1="0.5" y1="47" x2="999.5" y2="47" stroke="#14263f"/>

  <circle cx="28" cy="24" r="6" fill="#ff2d95"/>
  <circle cx="50" cy="24" r="6" fill="#f7c948"/>
  <circle cx="72" cy="24" r="6" fill="#00f0ff"/>
  <text x="96" y="29" class="ttl">LRX DIAGNOSTICS — /proc/LRecodex</text>
  <text x="972" y="29" class="ttl" text-anchor="end">v5.0</text>

  <text x="60" y="78" class="sec">// SYSTEM READOUT</text>
  <g class="row" style="animation-delay:0.30s">
    <text x="60" y="106" class="lbl">contributions (12 mo)</text>
    <text x="430" y="106" text-anchor="end" class="val">710</text>
    <line x1="60" y1="115" x2="430" y2="115" stroke="#0f1e33"/>
  </g>
  <g class="row" style="animation-delay:0.45s">
    <text x="60" y="136" class="lbl">commits</text>
    <text x="430" y="136" text-anchor="end" class="val">72</text>
    <line x1="60" y1="145" x2="430" y2="145" stroke="#0f1e33"/>
  </g>
  <g class="row" style="animation-delay:0.60s">
    <text x="60" y="166" class="lbl">pull requests</text>
    <text x="430" y="166" text-anchor="end" class="val">3</text>
    <line x1="60" y1="175" x2="430" y2="175" stroke="#0f1e33"/>
  </g>
  <g class="row" style="animation-delay:0.75s">
    <text x="60" y="196" class="lbl">code reviews</text>
    <text x="430" y="196" text-anchor="end" class="val">0</text>
    <line x1="60" y1="205" x2="430" y2="205" stroke="#0f1e33"/>
  </g>
  <g class="row" style="animation-delay:0.90s">
    <text x="60" y="226" class="lbl">issues filed</text>
    <text x="430" y="226" text-anchor="end" class="val">0</text>
    <line x1="60" y1="235" x2="430" y2="235" stroke="#0f1e33"/>
  </g>
  <g class="row" style="animation-delay:1.05s">
    <text x="60" y="256" class="lbl">stars earned</text>
    <text x="430" y="256" text-anchor="end" class="val">1</text>
    <line x1="60" y1="265" x2="430" y2="265" stroke="#0f1e33"/>
  </g>
  <g class="row" style="animation-delay:1.20s">
    <text x="60" y="286" class="lbl">followers</text>
    <text x="430" y="286" text-anchor="end" class="val">0</text>
    <line x1="60" y1="295" x2="430" y2="295" stroke="#0f1e33"/>
  </g>

  <line x1="490" y1="64" x2="490" y2="320" stroke="#0f1e33"/>

  <text x="530" y="78" class="sec">// TOP LANGUAGES</text>
  <g class="row" style="animation-delay:0.50s">
    <text x="530" y="112" class="lbl">Java</text>
    <text x="940" y="112" text-anchor="end" class="pct">42.3%</text>
  </g>
  <rect x="530" y="120" width="410" height="6" rx="3" fill="#0d1a2e"/>
  <rect x="530" y="120" height="6" rx="3" fill="#b07219" width="0">
    <animate attributeName="width" from="0" to="173.3" begin="0.60s" dur="0.8s" fill="freeze"/>
  </rect>
  <g class="row" style="animation-delay:0.65s">
    <text x="530" y="150" class="lbl">TypeScript</text>
    <text x="940" y="150" text-anchor="end" class="pct">20.9%</text>
  </g>
  <rect x="530" y="158" width="410" height="6" rx="3" fill="#0d1a2e"/>
  <rect x="530" y="158" height="6" rx="3" fill="#3178c6" width="0">
    <animate attributeName="width" from="0" to="85.8" begin="0.80s" dur="0.8s" fill="freeze"/>
  </rect>
  <g class="row" style="animation-delay:0.80s">
    <text x="530" y="188" class="lbl">JavaScript</text>
    <text x="940" y="188" text-anchor="end" class="pct">12.9%</text>
  </g>
  <rect x="530" y="196" width="410" height="6" rx="3" fill="#0d1a2e"/>
  <rect x="530" y="196" height="6" rx="3" fill="#f1e05a" width="0">
    <animate attributeName="width" from="0" to="52.8" begin="1.00s" dur="0.8s" fill="freeze"/>
  </rect>
  <g class="row" style="animation-delay:0.95s">
    <text x="530" y="226" class="lbl">C#</text>
    <text x="940" y="226" text-anchor="end" class="pct">9.4%</text>
  </g>
  <rect x="530" y="234" width="410" height="6" rx="3" fill="#0d1a2e"/>
  <rect x="530" y="234" height="6" rx="3" fill="#178600" width="0">
    <animate attributeName="width" from="0" to="38.7" begin="1.20s" dur="0.8s" fill="freeze"/>
  </rect>
  <g class="row" style="animation-delay:1.10s">
    <text x="530" y="264" class="lbl">PHP</text>
    <text x="940" y="264" text-anchor="end" class="pct">5.4%</text>
  </g>
  <rect x="530" y="272" width="410" height="6" rx="3" fill="#0d1a2e"/>
  <rect x="530" y="272" height="6" rx="3" fill="#4F5D95" width="0">
    <animate attributeName="width" from="0" to="22.3" begin="1.40s" dur="0.8s" fill="freeze"/>
  </rect>
  <g class="row" style="animation-delay:1.25s">
    <text x="530" y="302" class="lbl">Blade</text>
    <text x="940" y="302" text-anchor="end" class="pct">4.5%</text>
  </g>
  <rect x="530" y="310" width="410" height="6" rx="3" fill="#0d1a2e"/>
  <rect x="530" y="310" height="6" rx="3" fill="#f7523f" width="0">
    <animate attributeName="width" from="0" to="18.3" begin="1.60s" dur="0.8s" fill="freeze"/>
  </rect>

  <line x1="24" y1="332" x2="976" y2="332" stroke="#122543"/>
  <circle cx="44" cy="354" r="4" fill="#2bff88" class="led"/>
  <text x="60" y="359" class="ok">diagnostics complete — no critical issues found</text>
  <text x="972" y="359" text-anchor="end" class="dim">last scan: 2026-07-24 02:42 UTC</text>
</svg>
